<mxfile host="app.diagrams.net" agent="Mozilla/5.0 (Windows NT 10.0; Win64; x64) AppleWebKit/537.36 (KHTML, like Gecko) Chrome/130.0.0.0 Safari/537.36" version="24.7.17">
  <diagram name="Сторінка-1" id="WjCOx6q_UFpC22E2ERrL">
    <mxGraphModel grid="1" page="1" gridSize="10" guides="1" tooltips="1" connect="1" arrows="1" fold="1" pageScale="1" pageWidth="827" pageHeight="1169" math="0" shadow="0">
      <root>
        <mxCell id="0" />
        <mxCell id="1" parent="0" />
        <mxCell id="qdudkCzYWcwsIL2iu0D4-14" value="" style="edgeStyle=orthogonalEdgeStyle;rounded=0;orthogonalLoop=1;jettySize=auto;html=1;" edge="1" parent="1" source="qdudkCzYWcwsIL2iu0D4-1">
          <mxGeometry relative="1" as="geometry">
            <mxPoint x="120" y="170" as="targetPoint" />
          </mxGeometry>
        </mxCell>
        <mxCell id="qdudkCzYWcwsIL2iu0D4-1" value="&lt;font style=&quot;font-size: 18px;&quot;&gt;Start&lt;/font&gt;" style="ellipse;whiteSpace=wrap;html=1;" vertex="1" parent="1">
          <mxGeometry x="60" y="50" width="120" height="80" as="geometry" />
        </mxCell>
        <mxCell id="qdudkCzYWcwsIL2iu0D4-2" value="ЗАВДАННЯ 1" style="text;strokeColor=none;align=center;fillColor=none;html=1;verticalAlign=middle;whiteSpace=wrap;rounded=0;" vertex="1" parent="1">
          <mxGeometry x="80" y="10" width="80" height="30" as="geometry" />
        </mxCell>
        <mxCell id="qdudkCzYWcwsIL2iu0D4-36" value="" style="edgeStyle=orthogonalEdgeStyle;rounded=0;orthogonalLoop=1;jettySize=auto;html=1;" edge="1" parent="1" source="qdudkCzYWcwsIL2iu0D4-20" target="qdudkCzYWcwsIL2iu0D4-29">
          <mxGeometry relative="1" as="geometry" />
        </mxCell>
        <mxCell id="qdudkCzYWcwsIL2iu0D4-20" value="Операції над &lt;br&gt;float змінними" style="rounded=0;whiteSpace=wrap;html=1;" vertex="1" parent="1">
          <mxGeometry x="60" y="250" width="120" height="60" as="geometry" />
        </mxCell>
        <mxCell id="qdudkCzYWcwsIL2iu0D4-21" value="" style="endArrow=none;html=1;rounded=0;entryX=0.167;entryY=0;entryDx=0;entryDy=0;entryPerimeter=0;exitX=0.167;exitY=0.993;exitDx=0;exitDy=0;exitPerimeter=0;" edge="1" parent="1">
          <mxGeometry width="50" height="50" relative="1" as="geometry">
            <mxPoint x="70.03999999999996" y="309.78999999999996" as="sourcePoint" />
            <mxPoint x="70.03999999999996" y="250.20999999999998" as="targetPoint" />
            <Array as="points">
              <mxPoint x="70" y="280.21" />
            </Array>
          </mxGeometry>
        </mxCell>
        <mxCell id="qdudkCzYWcwsIL2iu0D4-22" value="" style="endArrow=none;html=1;rounded=0;entryX=0.167;entryY=0;entryDx=0;entryDy=0;entryPerimeter=0;exitX=0.167;exitY=0.993;exitDx=0;exitDy=0;exitPerimeter=0;" edge="1" parent="1">
          <mxGeometry width="50" height="50" relative="1" as="geometry">
            <mxPoint x="170" y="310" as="sourcePoint" />
            <mxPoint x="170" y="250" as="targetPoint" />
            <Array as="points">
              <mxPoint x="170" y="280" />
            </Array>
          </mxGeometry>
        </mxCell>
        <mxCell id="qdudkCzYWcwsIL2iu0D4-30" value="" style="edgeStyle=orthogonalEdgeStyle;rounded=0;orthogonalLoop=1;jettySize=auto;html=1;" edge="1" parent="1" source="qdudkCzYWcwsIL2iu0D4-27" target="qdudkCzYWcwsIL2iu0D4-20">
          <mxGeometry relative="1" as="geometry" />
        </mxCell>
        <mxCell id="qdudkCzYWcwsIL2iu0D4-27" value="Визначення наших змінних в float" style="rounded=0;whiteSpace=wrap;html=1;" vertex="1" parent="1">
          <mxGeometry x="60" y="170" width="120" height="60" as="geometry" />
        </mxCell>
        <mxCell id="qdudkCzYWcwsIL2iu0D4-37" value="" style="edgeStyle=orthogonalEdgeStyle;rounded=0;orthogonalLoop=1;jettySize=auto;html=1;" edge="1" parent="1" source="qdudkCzYWcwsIL2iu0D4-29" target="qdudkCzYWcwsIL2iu0D4-33">
          <mxGeometry relative="1" as="geometry" />
        </mxCell>
        <mxCell id="qdudkCzYWcwsIL2iu0D4-29" value="Визначення наших змінних в double" style="rounded=0;whiteSpace=wrap;html=1;" vertex="1" parent="1">
          <mxGeometry x="60" y="350" width="120" height="60" as="geometry" />
        </mxCell>
        <mxCell id="qdudkCzYWcwsIL2iu0D4-39" value="" style="edgeStyle=orthogonalEdgeStyle;rounded=0;orthogonalLoop=1;jettySize=auto;html=1;" edge="1" parent="1" source="qdudkCzYWcwsIL2iu0D4-33" target="qdudkCzYWcwsIL2iu0D4-38">
          <mxGeometry relative="1" as="geometry" />
        </mxCell>
        <mxCell id="qdudkCzYWcwsIL2iu0D4-33" value="Операції над &lt;br&gt;double змінними" style="rounded=0;whiteSpace=wrap;html=1;" vertex="1" parent="1">
          <mxGeometry x="60" y="430" width="120" height="60" as="geometry" />
        </mxCell>
        <mxCell id="qdudkCzYWcwsIL2iu0D4-34" value="" style="endArrow=none;html=1;rounded=0;entryX=0.167;entryY=0;entryDx=0;entryDy=0;entryPerimeter=0;exitX=0.167;exitY=0.993;exitDx=0;exitDy=0;exitPerimeter=0;" edge="1" parent="1">
          <mxGeometry width="50" height="50" relative="1" as="geometry">
            <mxPoint x="70.03999999999996" y="489.78999999999996" as="sourcePoint" />
            <mxPoint x="70.03999999999996" y="430.21" as="targetPoint" />
            <Array as="points">
              <mxPoint x="70" y="460.21" />
            </Array>
          </mxGeometry>
        </mxCell>
        <mxCell id="qdudkCzYWcwsIL2iu0D4-35" value="" style="endArrow=none;html=1;rounded=0;entryX=0.167;entryY=0;entryDx=0;entryDy=0;entryPerimeter=0;exitX=0.167;exitY=0.993;exitDx=0;exitDy=0;exitPerimeter=0;" edge="1" parent="1">
          <mxGeometry width="50" height="50" relative="1" as="geometry">
            <mxPoint x="170" y="490" as="sourcePoint" />
            <mxPoint x="170" y="430" as="targetPoint" />
            <Array as="points">
              <mxPoint x="170" y="460" />
            </Array>
          </mxGeometry>
        </mxCell>
        <mxCell id="qdudkCzYWcwsIL2iu0D4-41" value="" style="edgeStyle=orthogonalEdgeStyle;rounded=0;orthogonalLoop=1;jettySize=auto;html=1;" edge="1" parent="1" source="qdudkCzYWcwsIL2iu0D4-38" target="qdudkCzYWcwsIL2iu0D4-40">
          <mxGeometry relative="1" as="geometry" />
        </mxCell>
        <mxCell id="qdudkCzYWcwsIL2iu0D4-38" value="Вивід результату в float" style="shape=parallelogram;perimeter=parallelogramPerimeter;whiteSpace=wrap;html=1;fixedSize=1;" vertex="1" parent="1">
          <mxGeometry x="55" y="525" width="130" height="60" as="geometry" />
        </mxCell>
        <mxCell id="qdudkCzYWcwsIL2iu0D4-40" value="Вивід результату в double" style="shape=parallelogram;perimeter=parallelogramPerimeter;whiteSpace=wrap;html=1;fixedSize=1;" vertex="1" parent="1">
          <mxGeometry x="55" y="625" width="130" height="60" as="geometry" />
        </mxCell>
        <mxCell id="qdudkCzYWcwsIL2iu0D4-44" value="" style="edgeStyle=orthogonalEdgeStyle;rounded=0;orthogonalLoop=1;jettySize=auto;html=1;" edge="1" parent="1" source="qdudkCzYWcwsIL2iu0D4-42">
          <mxGeometry relative="1" as="geometry">
            <mxPoint x="450" y="200" as="targetPoint" />
          </mxGeometry>
        </mxCell>
        <mxCell id="qdudkCzYWcwsIL2iu0D4-42" value="Операції з float&lt;br&gt;змінними" style="ellipse;whiteSpace=wrap;html=1;" vertex="1" parent="1">
          <mxGeometry x="390" y="50" width="120" height="80" as="geometry" />
        </mxCell>
        <mxCell id="qdudkCzYWcwsIL2iu0D4-46" value="" style="edgeStyle=orthogonalEdgeStyle;rounded=0;orthogonalLoop=1;jettySize=auto;html=1;" edge="1" parent="1" source="qdudkCzYWcwsIL2iu0D4-43" target="qdudkCzYWcwsIL2iu0D4-45">
          <mxGeometry relative="1" as="geometry" />
        </mxCell>
        <mxCell id="qdudkCzYWcwsIL2iu0D4-43" value="RESULT_ONE_F =&amp;nbsp;&lt;span style=&quot;font-family: Consolas, &amp;quot;Courier New&amp;quot;, monospace; font-size: 14px; white-space: pre;&quot;&gt;&amp;nbsp;&lt;/span&gt;&lt;span style=&quot;font-family: Consolas, &amp;quot;Courier New&amp;quot;, monospace; font-size: 14px; white-space: pre;&quot;&gt;pow&lt;/span&gt;&lt;span style=&quot;font-family: Consolas, &amp;quot;Courier New&amp;quot;, monospace; font-size: 14px; white-space: pre;&quot;&gt;((&lt;/span&gt;&lt;span style=&quot;font-family: Consolas, &amp;quot;Courier New&amp;quot;, monospace; font-size: 14px; white-space: pre;&quot;&gt;a&lt;/span&gt;&lt;span style=&quot;font-family: Consolas, &amp;quot;Courier New&amp;quot;, monospace; font-size: 14px; white-space: pre;&quot;&gt; &lt;/span&gt;&lt;span style=&quot;font-family: Consolas, &amp;quot;Courier New&amp;quot;, monospace; font-size: 14px; white-space: pre;&quot;&gt;+&lt;/span&gt;&lt;span style=&quot;font-family: Consolas, &amp;quot;Courier New&amp;quot;, monospace; font-size: 14px; white-space: pre;&quot;&gt; &lt;/span&gt;&lt;span style=&quot;font-family: Consolas, &amp;quot;Courier New&amp;quot;, monospace; font-size: 14px; white-space: pre;&quot;&gt;b&lt;/span&gt;&lt;span style=&quot;font-family: Consolas, &amp;quot;Courier New&amp;quot;, monospace; font-size: 14px; white-space: pre;&quot;&gt;), &lt;/span&gt;&lt;span style=&quot;font-family: Consolas, &amp;quot;Courier New&amp;quot;, monospace; font-size: 14px; white-space: pre;&quot;&gt;3&lt;/span&gt;&lt;span style=&quot;font-family: Consolas, &amp;quot;Courier New&amp;quot;, monospace; font-size: 14px; white-space: pre;&quot;&gt;) &lt;/span&gt;&lt;span style=&quot;font-family: Consolas, &amp;quot;Courier New&amp;quot;, monospace; font-size: 14px; white-space: pre;&quot;&gt;-&lt;/span&gt;&lt;span style=&quot;font-family: Consolas, &amp;quot;Courier New&amp;quot;, monospace; font-size: 14px; white-space: pre;&quot;&gt; &lt;/span&gt;&lt;span style=&quot;font-family: Consolas, &amp;quot;Courier New&amp;quot;, monospace; font-size: 14px; white-space: pre;&quot;&gt;pow&lt;/span&gt;&lt;span style=&quot;font-family: Consolas, &amp;quot;Courier New&amp;quot;, monospace; font-size: 14px; white-space: pre;&quot;&gt;(&lt;/span&gt;&lt;span style=&quot;font-family: Consolas, &amp;quot;Courier New&amp;quot;, monospace; font-size: 14px; white-space: pre;&quot;&gt;a&lt;/span&gt;&lt;span style=&quot;font-family: Consolas, &amp;quot;Courier New&amp;quot;, monospace; font-size: 14px; white-space: pre;&quot;&gt;, &lt;/span&gt;&lt;span style=&quot;font-family: Consolas, &amp;quot;Courier New&amp;quot;, monospace; font-size: 14px; white-space: pre;&quot;&gt;3&lt;/span&gt;&lt;span style=&quot;font-family: Consolas, &amp;quot;Courier New&amp;quot;, monospace; font-size: 14px; white-space: pre;&quot;&gt;)&lt;/span&gt;&amp;nbsp;" style="rounded=0;whiteSpace=wrap;html=1;" vertex="1" parent="1">
          <mxGeometry x="285" y="200" width="330" height="60" as="geometry" />
        </mxCell>
        <mxCell id="qdudkCzYWcwsIL2iu0D4-48" value="" style="edgeStyle=orthogonalEdgeStyle;rounded=0;orthogonalLoop=1;jettySize=auto;html=1;" edge="1" parent="1" source="qdudkCzYWcwsIL2iu0D4-45" target="qdudkCzYWcwsIL2iu0D4-47">
          <mxGeometry relative="1" as="geometry" />
        </mxCell>
        <mxCell id="qdudkCzYWcwsIL2iu0D4-45" value="RESULT_TWO_F&amp;nbsp;=&amp;nbsp;&lt;span style=&quot;background-color: initial; font-family: Consolas, &amp;quot;Courier New&amp;quot;, monospace; font-size: 14px; white-space: pre;&quot;&gt;3&lt;/span&gt;&lt;span style=&quot;background-color: initial; font-family: Consolas, &amp;quot;Courier New&amp;quot;, monospace; font-size: 14px; white-space: pre;&quot;&gt;*&lt;/span&gt;&lt;span style=&quot;background-color: initial; font-family: Consolas, &amp;quot;Courier New&amp;quot;, monospace; font-size: 14px; white-space: pre;&quot;&gt;a&lt;/span&gt;&lt;span style=&quot;background-color: initial; font-family: Consolas, &amp;quot;Courier New&amp;quot;, monospace; font-size: 14px; white-space: pre;&quot;&gt;*&lt;/span&gt;&lt;span style=&quot;background-color: initial; font-family: Consolas, &amp;quot;Courier New&amp;quot;, monospace; font-size: 14px; white-space: pre;&quot;&gt;pow&lt;/span&gt;&lt;span style=&quot;background-color: initial; font-family: Consolas, &amp;quot;Courier New&amp;quot;, monospace; font-size: 14px; white-space: pre;&quot;&gt;(&lt;/span&gt;&lt;span style=&quot;background-color: initial; font-family: Consolas, &amp;quot;Courier New&amp;quot;, monospace; font-size: 14px; white-space: pre;&quot;&gt;b&lt;/span&gt;&lt;span style=&quot;background-color: initial; font-family: Consolas, &amp;quot;Courier New&amp;quot;, monospace; font-size: 14px; white-space: pre;&quot;&gt;, &lt;/span&gt;&lt;span style=&quot;background-color: initial; font-family: Consolas, &amp;quot;Courier New&amp;quot;, monospace; font-size: 14px; white-space: pre;&quot;&gt;2&lt;/span&gt;&lt;span style=&quot;background-color: initial; font-family: Consolas, &amp;quot;Courier New&amp;quot;, monospace; font-size: 14px; white-space: pre;&quot;&gt;) &lt;/span&gt;&lt;span style=&quot;background-color: initial; font-family: Consolas, &amp;quot;Courier New&amp;quot;, monospace; font-size: 14px; white-space: pre;&quot;&gt;+&lt;/span&gt;&lt;span style=&quot;background-color: initial; font-family: Consolas, &amp;quot;Courier New&amp;quot;, monospace; font-size: 14px; white-space: pre;&quot;&gt; &lt;/span&gt;&lt;span style=&quot;background-color: initial; font-family: Consolas, &amp;quot;Courier New&amp;quot;, monospace; font-size: 14px; white-space: pre;&quot;&gt;pow&lt;/span&gt;&lt;span style=&quot;background-color: initial; font-family: Consolas, &amp;quot;Courier New&amp;quot;, monospace; font-size: 14px; white-space: pre;&quot;&gt;(&lt;/span&gt;&lt;span style=&quot;background-color: initial; font-family: Consolas, &amp;quot;Courier New&amp;quot;, monospace; font-size: 14px; white-space: pre;&quot;&gt;b&lt;/span&gt;&lt;span style=&quot;background-color: initial; font-family: Consolas, &amp;quot;Courier New&amp;quot;, monospace; font-size: 14px; white-space: pre;&quot;&gt;, &lt;/span&gt;&lt;span style=&quot;background-color: initial; font-family: Consolas, &amp;quot;Courier New&amp;quot;, monospace; font-size: 14px; white-space: pre;&quot;&gt;3&lt;/span&gt;&lt;span style=&quot;background-color: initial; font-family: Consolas, &amp;quot;Courier New&amp;quot;, monospace; font-size: 14px; white-space: pre;&quot;&gt;) &lt;/span&gt;&lt;span style=&quot;background-color: initial; font-family: Consolas, &amp;quot;Courier New&amp;quot;, monospace; font-size: 14px; white-space: pre;&quot;&gt;+&lt;/span&gt;&lt;span style=&quot;background-color: initial; font-family: Consolas, &amp;quot;Courier New&amp;quot;, monospace; font-size: 14px; white-space: pre;&quot;&gt; &lt;/span&gt;&lt;span style=&quot;background-color: initial; font-family: Consolas, &amp;quot;Courier New&amp;quot;, monospace; font-size: 14px; white-space: pre;&quot;&gt;3&lt;/span&gt;&lt;span style=&quot;background-color: initial; font-family: Consolas, &amp;quot;Courier New&amp;quot;, monospace; font-size: 14px; white-space: pre;&quot;&gt;*&lt;/span&gt;&lt;span style=&quot;background-color: initial; font-family: Consolas, &amp;quot;Courier New&amp;quot;, monospace; font-size: 14px; white-space: pre;&quot;&gt; &lt;/span&gt;&lt;span style=&quot;background-color: initial; font-family: Consolas, &amp;quot;Courier New&amp;quot;, monospace; font-size: 14px; white-space: pre;&quot;&gt;b&lt;/span&gt;&lt;span style=&quot;background-color: initial; font-family: Consolas, &amp;quot;Courier New&amp;quot;, monospace; font-size: 14px; white-space: pre;&quot;&gt;*&lt;/span&gt;&lt;span style=&quot;background-color: initial; font-family: Consolas, &amp;quot;Courier New&amp;quot;, monospace; font-size: 14px; white-space: pre;&quot;&gt;pow&lt;/span&gt;&lt;span style=&quot;background-color: initial; font-family: Consolas, &amp;quot;Courier New&amp;quot;, monospace; font-size: 14px; white-space: pre;&quot;&gt;(&lt;/span&gt;&lt;span style=&quot;background-color: initial; font-family: Consolas, &amp;quot;Courier New&amp;quot;, monospace; font-size: 14px; white-space: pre;&quot;&gt;a&lt;/span&gt;&lt;span style=&quot;background-color: initial; font-family: Consolas, &amp;quot;Courier New&amp;quot;, monospace; font-size: 14px; white-space: pre;&quot;&gt;, &lt;/span&gt;&lt;span style=&quot;background-color: initial; font-family: Consolas, &amp;quot;Courier New&amp;quot;, monospace; font-size: 14px; white-space: pre;&quot;&gt;2&lt;/span&gt;&lt;span style=&quot;background-color: initial; font-family: Consolas, &amp;quot;Courier New&amp;quot;, monospace; font-size: 14px; white-space: pre;&quot;&gt;)&lt;/span&gt;&lt;span style=&quot;background-color: initial;&quot;&gt;&amp;nbsp;&lt;/span&gt;" style="rounded=0;whiteSpace=wrap;html=1;" vertex="1" parent="1">
          <mxGeometry x="227.5" y="330" width="445" height="80" as="geometry" />
        </mxCell>
        <mxCell id="qdudkCzYWcwsIL2iu0D4-50" value="" style="edgeStyle=orthogonalEdgeStyle;rounded=0;orthogonalLoop=1;jettySize=auto;html=1;" edge="1" parent="1" source="qdudkCzYWcwsIL2iu0D4-47" target="qdudkCzYWcwsIL2iu0D4-49">
          <mxGeometry relative="1" as="geometry" />
        </mxCell>
        <mxCell id="qdudkCzYWcwsIL2iu0D4-47" value="RESULT_RESULT_F = RESULT_ONE_F / RESULT_TWO_F" style="whiteSpace=wrap;html=1;rounded=0;" vertex="1" parent="1">
          <mxGeometry x="345" y="450" width="210" height="60" as="geometry" />
        </mxCell>
        <mxCell id="qdudkCzYWcwsIL2iu0D4-49" value="Return результат в float" style="ellipse;whiteSpace=wrap;html=1;" vertex="1" parent="1">
          <mxGeometry x="390" y="545" width="120" height="80" as="geometry" />
        </mxCell>
        <mxCell id="qdudkCzYWcwsIL2iu0D4-51" value="" style="edgeStyle=orthogonalEdgeStyle;rounded=0;orthogonalLoop=1;jettySize=auto;html=1;" edge="1" parent="1" source="qdudkCzYWcwsIL2iu0D4-52">
          <mxGeometry relative="1" as="geometry">
            <mxPoint x="922.5" y="200" as="targetPoint" />
          </mxGeometry>
        </mxCell>
        <mxCell id="qdudkCzYWcwsIL2iu0D4-52" value="Операції з double&lt;br&gt;змінними" style="ellipse;whiteSpace=wrap;html=1;" vertex="1" parent="1">
          <mxGeometry x="862.5" y="50" width="120" height="80" as="geometry" />
        </mxCell>
        <mxCell id="qdudkCzYWcwsIL2iu0D4-53" value="" style="edgeStyle=orthogonalEdgeStyle;rounded=0;orthogonalLoop=1;jettySize=auto;html=1;" edge="1" parent="1" source="qdudkCzYWcwsIL2iu0D4-54" target="qdudkCzYWcwsIL2iu0D4-56">
          <mxGeometry relative="1" as="geometry" />
        </mxCell>
        <mxCell id="qdudkCzYWcwsIL2iu0D4-54" value="RESULT_ONE_D =&amp;nbsp;&lt;span style=&quot;font-family: Consolas, &amp;quot;Courier New&amp;quot;, monospace; font-size: 14px; white-space: pre;&quot;&gt;&amp;nbsp;&lt;/span&gt;&lt;span style=&quot;font-family: Consolas, &amp;quot;Courier New&amp;quot;, monospace; font-size: 14px; white-space: pre;&quot;&gt;pow&lt;/span&gt;&lt;span style=&quot;font-family: Consolas, &amp;quot;Courier New&amp;quot;, monospace; font-size: 14px; white-space: pre;&quot;&gt;((&lt;/span&gt;&lt;span style=&quot;font-family: Consolas, &amp;quot;Courier New&amp;quot;, monospace; font-size: 14px; white-space: pre;&quot;&gt;a&lt;/span&gt;&lt;span style=&quot;font-family: Consolas, &amp;quot;Courier New&amp;quot;, monospace; font-size: 14px; white-space: pre;&quot;&gt; &lt;/span&gt;&lt;span style=&quot;font-family: Consolas, &amp;quot;Courier New&amp;quot;, monospace; font-size: 14px; white-space: pre;&quot;&gt;+&lt;/span&gt;&lt;span style=&quot;font-family: Consolas, &amp;quot;Courier New&amp;quot;, monospace; font-size: 14px; white-space: pre;&quot;&gt; &lt;/span&gt;&lt;span style=&quot;font-family: Consolas, &amp;quot;Courier New&amp;quot;, monospace; font-size: 14px; white-space: pre;&quot;&gt;b&lt;/span&gt;&lt;span style=&quot;font-family: Consolas, &amp;quot;Courier New&amp;quot;, monospace; font-size: 14px; white-space: pre;&quot;&gt;), &lt;/span&gt;&lt;span style=&quot;font-family: Consolas, &amp;quot;Courier New&amp;quot;, monospace; font-size: 14px; white-space: pre;&quot;&gt;3&lt;/span&gt;&lt;span style=&quot;font-family: Consolas, &amp;quot;Courier New&amp;quot;, monospace; font-size: 14px; white-space: pre;&quot;&gt;) &lt;/span&gt;&lt;span style=&quot;font-family: Consolas, &amp;quot;Courier New&amp;quot;, monospace; font-size: 14px; white-space: pre;&quot;&gt;-&lt;/span&gt;&lt;span style=&quot;font-family: Consolas, &amp;quot;Courier New&amp;quot;, monospace; font-size: 14px; white-space: pre;&quot;&gt; &lt;/span&gt;&lt;span style=&quot;font-family: Consolas, &amp;quot;Courier New&amp;quot;, monospace; font-size: 14px; white-space: pre;&quot;&gt;pow&lt;/span&gt;&lt;span style=&quot;font-family: Consolas, &amp;quot;Courier New&amp;quot;, monospace; font-size: 14px; white-space: pre;&quot;&gt;(&lt;/span&gt;&lt;span style=&quot;font-family: Consolas, &amp;quot;Courier New&amp;quot;, monospace; font-size: 14px; white-space: pre;&quot;&gt;a&lt;/span&gt;&lt;span style=&quot;font-family: Consolas, &amp;quot;Courier New&amp;quot;, monospace; font-size: 14px; white-space: pre;&quot;&gt;, &lt;/span&gt;&lt;span style=&quot;font-family: Consolas, &amp;quot;Courier New&amp;quot;, monospace; font-size: 14px; white-space: pre;&quot;&gt;3&lt;/span&gt;&lt;span style=&quot;font-family: Consolas, &amp;quot;Courier New&amp;quot;, monospace; font-size: 14px; white-space: pre;&quot;&gt;)&lt;/span&gt;&amp;nbsp;" style="rounded=0;whiteSpace=wrap;html=1;" vertex="1" parent="1">
          <mxGeometry x="757.5" y="200" width="330" height="60" as="geometry" />
        </mxCell>
        <mxCell id="qdudkCzYWcwsIL2iu0D4-55" value="" style="edgeStyle=orthogonalEdgeStyle;rounded=0;orthogonalLoop=1;jettySize=auto;html=1;" edge="1" parent="1" source="qdudkCzYWcwsIL2iu0D4-56" target="qdudkCzYWcwsIL2iu0D4-58">
          <mxGeometry relative="1" as="geometry" />
        </mxCell>
        <mxCell id="qdudkCzYWcwsIL2iu0D4-56" value="RESULT_TWO_D =&amp;nbsp;&lt;span style=&quot;background-color: initial; font-family: Consolas, &amp;quot;Courier New&amp;quot;, monospace; font-size: 14px; white-space: pre;&quot;&gt;3&lt;/span&gt;&lt;span style=&quot;background-color: initial; font-family: Consolas, &amp;quot;Courier New&amp;quot;, monospace; font-size: 14px; white-space: pre;&quot;&gt;*&lt;/span&gt;&lt;span style=&quot;background-color: initial; font-family: Consolas, &amp;quot;Courier New&amp;quot;, monospace; font-size: 14px; white-space: pre;&quot;&gt;a&lt;/span&gt;&lt;span style=&quot;background-color: initial; font-family: Consolas, &amp;quot;Courier New&amp;quot;, monospace; font-size: 14px; white-space: pre;&quot;&gt;*&lt;/span&gt;&lt;span style=&quot;background-color: initial; font-family: Consolas, &amp;quot;Courier New&amp;quot;, monospace; font-size: 14px; white-space: pre;&quot;&gt;pow&lt;/span&gt;&lt;span style=&quot;background-color: initial; font-family: Consolas, &amp;quot;Courier New&amp;quot;, monospace; font-size: 14px; white-space: pre;&quot;&gt;(&lt;/span&gt;&lt;span style=&quot;background-color: initial; font-family: Consolas, &amp;quot;Courier New&amp;quot;, monospace; font-size: 14px; white-space: pre;&quot;&gt;b&lt;/span&gt;&lt;span style=&quot;background-color: initial; font-family: Consolas, &amp;quot;Courier New&amp;quot;, monospace; font-size: 14px; white-space: pre;&quot;&gt;, &lt;/span&gt;&lt;span style=&quot;background-color: initial; font-family: Consolas, &amp;quot;Courier New&amp;quot;, monospace; font-size: 14px; white-space: pre;&quot;&gt;2&lt;/span&gt;&lt;span style=&quot;background-color: initial; font-family: Consolas, &amp;quot;Courier New&amp;quot;, monospace; font-size: 14px; white-space: pre;&quot;&gt;) &lt;/span&gt;&lt;span style=&quot;background-color: initial; font-family: Consolas, &amp;quot;Courier New&amp;quot;, monospace; font-size: 14px; white-space: pre;&quot;&gt;+&lt;/span&gt;&lt;span style=&quot;background-color: initial; font-family: Consolas, &amp;quot;Courier New&amp;quot;, monospace; font-size: 14px; white-space: pre;&quot;&gt; &lt;/span&gt;&lt;span style=&quot;background-color: initial; font-family: Consolas, &amp;quot;Courier New&amp;quot;, monospace; font-size: 14px; white-space: pre;&quot;&gt;pow&lt;/span&gt;&lt;span style=&quot;background-color: initial; font-family: Consolas, &amp;quot;Courier New&amp;quot;, monospace; font-size: 14px; white-space: pre;&quot;&gt;(&lt;/span&gt;&lt;span style=&quot;background-color: initial; font-family: Consolas, &amp;quot;Courier New&amp;quot;, monospace; font-size: 14px; white-space: pre;&quot;&gt;b&lt;/span&gt;&lt;span style=&quot;background-color: initial; font-family: Consolas, &amp;quot;Courier New&amp;quot;, monospace; font-size: 14px; white-space: pre;&quot;&gt;, &lt;/span&gt;&lt;span style=&quot;background-color: initial; font-family: Consolas, &amp;quot;Courier New&amp;quot;, monospace; font-size: 14px; white-space: pre;&quot;&gt;3&lt;/span&gt;&lt;span style=&quot;background-color: initial; font-family: Consolas, &amp;quot;Courier New&amp;quot;, monospace; font-size: 14px; white-space: pre;&quot;&gt;) &lt;/span&gt;&lt;span style=&quot;background-color: initial; font-family: Consolas, &amp;quot;Courier New&amp;quot;, monospace; font-size: 14px; white-space: pre;&quot;&gt;+&lt;/span&gt;&lt;span style=&quot;background-color: initial; font-family: Consolas, &amp;quot;Courier New&amp;quot;, monospace; font-size: 14px; white-space: pre;&quot;&gt; &lt;/span&gt;&lt;span style=&quot;background-color: initial; font-family: Consolas, &amp;quot;Courier New&amp;quot;, monospace; font-size: 14px; white-space: pre;&quot;&gt;3&lt;/span&gt;&lt;span style=&quot;background-color: initial; font-family: Consolas, &amp;quot;Courier New&amp;quot;, monospace; font-size: 14px; white-space: pre;&quot;&gt;*&lt;/span&gt;&lt;span style=&quot;background-color: initial; font-family: Consolas, &amp;quot;Courier New&amp;quot;, monospace; font-size: 14px; white-space: pre;&quot;&gt; &lt;/span&gt;&lt;span style=&quot;background-color: initial; font-family: Consolas, &amp;quot;Courier New&amp;quot;, monospace; font-size: 14px; white-space: pre;&quot;&gt;b&lt;/span&gt;&lt;span style=&quot;background-color: initial; font-family: Consolas, &amp;quot;Courier New&amp;quot;, monospace; font-size: 14px; white-space: pre;&quot;&gt;*&lt;/span&gt;&lt;span style=&quot;background-color: initial; font-family: Consolas, &amp;quot;Courier New&amp;quot;, monospace; font-size: 14px; white-space: pre;&quot;&gt;pow&lt;/span&gt;&lt;span style=&quot;background-color: initial; font-family: Consolas, &amp;quot;Courier New&amp;quot;, monospace; font-size: 14px; white-space: pre;&quot;&gt;(&lt;/span&gt;&lt;span style=&quot;background-color: initial; font-family: Consolas, &amp;quot;Courier New&amp;quot;, monospace; font-size: 14px; white-space: pre;&quot;&gt;a&lt;/span&gt;&lt;span style=&quot;background-color: initial; font-family: Consolas, &amp;quot;Courier New&amp;quot;, monospace; font-size: 14px; white-space: pre;&quot;&gt;, &lt;/span&gt;&lt;span style=&quot;background-color: initial; font-family: Consolas, &amp;quot;Courier New&amp;quot;, monospace; font-size: 14px; white-space: pre;&quot;&gt;2&lt;/span&gt;&lt;span style=&quot;background-color: initial; font-family: Consolas, &amp;quot;Courier New&amp;quot;, monospace; font-size: 14px; white-space: pre;&quot;&gt;)&lt;/span&gt;&lt;span style=&quot;background-color: initial;&quot;&gt;&amp;nbsp;&lt;/span&gt;" style="rounded=0;whiteSpace=wrap;html=1;" vertex="1" parent="1">
          <mxGeometry x="700" y="330" width="445" height="80" as="geometry" />
        </mxCell>
        <mxCell id="qdudkCzYWcwsIL2iu0D4-57" value="" style="edgeStyle=orthogonalEdgeStyle;rounded=0;orthogonalLoop=1;jettySize=auto;html=1;" edge="1" parent="1" source="qdudkCzYWcwsIL2iu0D4-58">
          <mxGeometry relative="1" as="geometry">
            <mxPoint x="922.5000000000002" y="544.9999999999999" as="targetPoint" />
          </mxGeometry>
        </mxCell>
        <mxCell id="qdudkCzYWcwsIL2iu0D4-58" value="RESULT_RESULT_D = RESULT_ONE_D / RESULT_TWO_D" style="whiteSpace=wrap;html=1;rounded=0;" vertex="1" parent="1">
          <mxGeometry x="817.5" y="450" width="210" height="60" as="geometry" />
        </mxCell>
        <mxCell id="qdudkCzYWcwsIL2iu0D4-60" value="Return результат в double" style="ellipse;whiteSpace=wrap;html=1;" vertex="1" parent="1">
          <mxGeometry x="862.5" y="545" width="120" height="80" as="geometry" />
        </mxCell>
        <mxCell id="qdudkCzYWcwsIL2iu0D4-61" value="ЗАВДАННЯ 2" style="text;strokeColor=none;align=center;fillColor=none;html=1;verticalAlign=middle;whiteSpace=wrap;rounded=0;" vertex="1" parent="1">
          <mxGeometry x="1340" y="30" width="80" height="30" as="geometry" />
        </mxCell>
        <mxCell id="qdudkCzYWcwsIL2iu0D4-64" value="" style="edgeStyle=orthogonalEdgeStyle;rounded=0;orthogonalLoop=1;jettySize=auto;html=1;" edge="1" parent="1" source="qdudkCzYWcwsIL2iu0D4-62" target="qdudkCzYWcwsIL2iu0D4-63">
          <mxGeometry relative="1" as="geometry" />
        </mxCell>
        <mxCell id="qdudkCzYWcwsIL2iu0D4-62" value="&lt;font style=&quot;font-size: 18px;&quot;&gt;Start&lt;/font&gt;" style="ellipse;whiteSpace=wrap;html=1;" vertex="1" parent="1">
          <mxGeometry x="1320" y="70" width="120" height="80" as="geometry" />
        </mxCell>
        <mxCell id="qdudkCzYWcwsIL2iu0D4-66" value="" style="edgeStyle=orthogonalEdgeStyle;rounded=0;orthogonalLoop=1;jettySize=auto;html=1;" edge="1" parent="1" source="qdudkCzYWcwsIL2iu0D4-63" target="qdudkCzYWcwsIL2iu0D4-65">
          <mxGeometry relative="1" as="geometry" />
        </mxCell>
        <mxCell id="qdudkCzYWcwsIL2iu0D4-63" value="&lt;font style=&quot;font-size: 18px;&quot;&gt;int n, m&lt;/font&gt;" style="rounded=0;whiteSpace=wrap;html=1;" vertex="1" parent="1">
          <mxGeometry x="1320" y="170" width="120" height="60" as="geometry" />
        </mxCell>
        <mxCell id="qdudkCzYWcwsIL2iu0D4-68" value="" style="edgeStyle=orthogonalEdgeStyle;rounded=0;orthogonalLoop=1;jettySize=auto;html=1;" edge="1" parent="1" source="qdudkCzYWcwsIL2iu0D4-65" target="qdudkCzYWcwsIL2iu0D4-67">
          <mxGeometry relative="1" as="geometry" />
        </mxCell>
        <mxCell id="qdudkCzYWcwsIL2iu0D4-65" value="Введення значень" style="shape=parallelogram;perimeter=parallelogramPerimeter;whiteSpace=wrap;html=1;fixedSize=1;" vertex="1" parent="1">
          <mxGeometry x="1315" y="270" width="130" height="60" as="geometry" />
        </mxCell>
        <mxCell id="qdudkCzYWcwsIL2iu0D4-70" value="" style="edgeStyle=orthogonalEdgeStyle;rounded=0;orthogonalLoop=1;jettySize=auto;html=1;" edge="1" parent="1" source="qdudkCzYWcwsIL2iu0D4-67" target="qdudkCzYWcwsIL2iu0D4-69">
          <mxGeometry relative="1" as="geometry" />
        </mxCell>
        <mxCell id="qdudkCzYWcwsIL2iu0D4-67" value="&lt;span style=&quot;font-size: 18px;&quot;&gt;int n1 = n++&lt;/span&gt;" style="rounded=0;whiteSpace=wrap;html=1;" vertex="1" parent="1">
          <mxGeometry x="1320" y="360" width="120" height="60" as="geometry" />
        </mxCell>
        <mxCell id="qdudkCzYWcwsIL2iu0D4-72" value="" style="edgeStyle=orthogonalEdgeStyle;rounded=0;orthogonalLoop=1;jettySize=auto;html=1;" edge="1" parent="1" source="qdudkCzYWcwsIL2iu0D4-69" target="qdudkCzYWcwsIL2iu0D4-71">
          <mxGeometry relative="1" as="geometry" />
        </mxCell>
        <mxCell id="qdudkCzYWcwsIL2iu0D4-69" value="&lt;font style=&quot;font-size: 18px;&quot;&gt;int STEP1 = n1 * m&lt;/font&gt;" style="whiteSpace=wrap;html=1;rounded=0;" vertex="1" parent="1">
          <mxGeometry x="1295" y="450" width="170" height="60" as="geometry" />
        </mxCell>
        <mxCell id="qdudkCzYWcwsIL2iu0D4-74" value="" style="edgeStyle=orthogonalEdgeStyle;rounded=0;orthogonalLoop=1;jettySize=auto;html=1;" edge="1" parent="1" source="qdudkCzYWcwsIL2iu0D4-71" target="qdudkCzYWcwsIL2iu0D4-73">
          <mxGeometry relative="1" as="geometry" />
        </mxCell>
        <mxCell id="qdudkCzYWcwsIL2iu0D4-71" value="&lt;font style=&quot;font-size: 18px;&quot;&gt;int STEP2 = n1 &amp;lt; m&lt;/font&gt;" style="whiteSpace=wrap;html=1;rounded=0;" vertex="1" parent="1">
          <mxGeometry x="1295" y="540" width="170" height="60" as="geometry" />
        </mxCell>
        <mxCell id="qdudkCzYWcwsIL2iu0D4-76" value="" style="edgeStyle=orthogonalEdgeStyle;rounded=0;orthogonalLoop=1;jettySize=auto;html=1;" edge="1" parent="1" source="qdudkCzYWcwsIL2iu0D4-73" target="qdudkCzYWcwsIL2iu0D4-75">
          <mxGeometry relative="1" as="geometry" />
        </mxCell>
        <mxCell id="qdudkCzYWcwsIL2iu0D4-73" value="&lt;span style=&quot;font-size: 18px;&quot;&gt;int m1 = m--&lt;/span&gt;" style="rounded=0;whiteSpace=wrap;html=1;" vertex="1" parent="1">
          <mxGeometry x="1320" y="630" width="120" height="60" as="geometry" />
        </mxCell>
        <mxCell id="qdudkCzYWcwsIL2iu0D4-78" value="" style="edgeStyle=orthogonalEdgeStyle;rounded=0;orthogonalLoop=1;jettySize=auto;html=1;" edge="1" parent="1" source="qdudkCzYWcwsIL2iu0D4-75" target="qdudkCzYWcwsIL2iu0D4-77">
          <mxGeometry relative="1" as="geometry" />
        </mxCell>
        <mxCell id="qdudkCzYWcwsIL2iu0D4-75" value="&lt;font style=&quot;font-size: 18px;&quot;&gt;int STEP3 = m1 &amp;gt; m&lt;/font&gt;" style="whiteSpace=wrap;html=1;rounded=0;" vertex="1" parent="1">
          <mxGeometry x="1295" y="710" width="170" height="60" as="geometry" />
        </mxCell>
        <mxCell id="qdudkCzYWcwsIL2iu0D4-80" value="" style="edgeStyle=orthogonalEdgeStyle;rounded=0;orthogonalLoop=1;jettySize=auto;html=1;" edge="1" parent="1" source="qdudkCzYWcwsIL2iu0D4-77" target="qdudkCzYWcwsIL2iu0D4-79">
          <mxGeometry relative="1" as="geometry" />
        </mxCell>
        <mxCell id="qdudkCzYWcwsIL2iu0D4-77" value="Виведення&amp;nbsp;&lt;br&gt;1) n++ * m&lt;br&gt;2)n++ &amp;lt; m&lt;div&gt;3)m-- &amp;gt; m&lt;/div&gt;&lt;div&gt;&lt;br&gt;&lt;/div&gt;" style="shape=parallelogram;perimeter=parallelogramPerimeter;whiteSpace=wrap;html=1;fixedSize=1;" vertex="1" parent="1">
          <mxGeometry x="1305" y="810" width="150" height="80" as="geometry" />
        </mxCell>
        <mxCell id="qdudkCzYWcwsIL2iu0D4-79" value="&lt;font style=&quot;font-size: 18px;&quot;&gt;End&lt;/font&gt;" style="ellipse;whiteSpace=wrap;html=1;" vertex="1" parent="1">
          <mxGeometry x="1320" y="930" width="120" height="80" as="geometry" />
        </mxCell>
      </root>
    </mxGraphModel>
  </diagram>
</mxfile>
